<?xml version="1.0" encoding="utf-8"?>
<!-- Generator: Adobe Illustrator 26.3.0, SVG Export Plug-In . SVG Version: 6.00 Build 0)  -->
<svg version="1.1" id="Layer_1" xmlns="http://www.w3.org/2000/svg" xmlns:xlink="http://www.w3.org/1999/xlink" x="0px" y="0px"
	 viewBox="0 0 397.6 401.7" style="enable-background:new 0 0 397.6 401.7;" xml:space="preserve">
<style type="text/css">
	.st0{fill:#00A651;}
	.st1{fill:#7FD2A8;}
	.st2{fill:#FBC9B0;}
	.st3{fill:#009444;}
	.st4{fill:#FDDAC7;}
	.st5{fill:none;}
	.st6{fill:url(#SVGID_1_);}
	.st7{fill:none;stroke:url(#SVGID_00000152942971202051434560000009957813615808519817_);stroke-width:17;stroke-miterlimit:10;}
	.st8{fill:#FAD3BC;}
	.st9{fill:url(#SVGID_00000168797484864002144100000014380477034721532812_);}
	.st10{fill:url(#SVGID_00000171000228660216967700000014968897352730128572_);}
	.st11{fill:url(#SVGID_00000129187857956924315530000009749427736573391744_);}
	.st12{fill:url(#SVGID_00000060719873282531739980000010746607625841001876_);}
	.st13{fill:#FFFFFF;stroke:#231F20;stroke-width:1;stroke-miterlimit:10.0001;}
	.st14{fill:#231F20;}
	.st15{fill:#FFFFFF;stroke:#231F20;stroke-width:1;stroke-miterlimit:10.0002;}
	.st16{fill:none;stroke:#231F20;stroke-width:2;stroke-linecap:round;stroke-miterlimit:10;}
	.st17{display:none;}
	.st18{display:inline;fill:#00A651;}
	.st19{display:inline;fill:#009444;}
	.st20{display:inline;}
	.st21{fill:url(#SVGID_00000167369628480737683760000012205101281246344109_);}
	.st22{fill:url(#SVGID_00000131354840962734911010000010619296662971194290_);}
	.st23{fill:url(#SVGID_00000074409078715968385250000017020464799570594703_);}
	.st24{fill:url(#SVGID_00000103259103047118926080000002814500319411705220_);}
	.st25{fill:url(#SVGID_00000072251339945333502820000002712074085125258420_);}
	.st26{fill:url(#SVGID_00000132071886517570035820000010562666310515168149_);}
	.st27{fill:url(#SVGID_00000010275061087092645260000001185974261860610450_);}
	.st28{fill:url(#SVGID_00000098196464828695327270000017874000471143105971_);}
	.st29{display:none;fill:url(#SVGID_00000047022935173896324410000015817166203998527907_);}
</style>
<g>
	<g>
		<path class="st0" d="M332.7,272.4c0,0.1,0,0.2,0,0.3c0,0.4-0.1,0.8-0.3,1.1c-1.3,1.7-3.8,1.5-5.4-0.3c-0.6-0.7-1-2-1.2-3.5l0,0
			c-0.5-1.3-1.4-7.8-1.8-9c-0.9-2.7-1.5-5.4-1.4-8.3c0.1-3.4,1.4-6.2,4.5-7.8c1.5-0.8,3.3-1.2,5-1.8c0.3-0.1,0.7-0.2,0.9-0.4
			c2.4-2.8,5.5-3.6,8.9-2.9c6.1,1.3,10.7,4.9,14,10.1c0.3,0.4,0.5,0.9,0.6,1.4c0.1,0.5,0,0.9-0.2,1.4c-0.4,1-0.9,2-1.5,3
			c-0.2,0.3-0.4,0.6-0.6,0.9c-0.6,0.8-1.2,1.6-1.8,2.3c-0.4,0.5-0.9,1-1.3,1.6c-0.4,0.5-0.7,1-1.1,1.5c-0.7,0.9-1.8,1.7-3,1.8l0,0
			c-0.5-0.8-1.1-1.6-1.7-2.5c-0.5-0.7-1.3-1.2-2.1-1.6c-1.8-0.9-3.7,0.1-4.1,2c-0.5,2.1,0.1,4.1,0.8,6.1c0.3,0.8,0.6,1.7,1,2.5
			c0.2,0.6,0.3,1.2,0.5,1.8"/>
		<g>
			<path class="st1" d="M332.4,222.6l7.7,20.1c-2.1-0.1-4,0.6-5.7,2.2c-0.3,0.2-0.7,0.4-1.1,0.4c-2,0-3.9,0.1-5.7,0.9
				c-1,0.4-1.8,0.9-2.4,1.5l-7.5-19.5c-0.5-1.3,0.1-2.7,1.4-3.2l10-3.9C330.4,220.7,331.9,221.3,332.4,222.6z"/>
		</g>
		<g>
			<g>
				<g>
					<g>
						<path class="st2" d="M342.7,259.5c0,0,0.1,0,0.2,0C342.8,259.6,342.8,259.6,342.7,259.5z"/>
					</g>
					<g>
						<path class="st2" d="M343.3,259.8C343.3,259.8,343.3,259.8,343.3,259.8c-0.2-0.1-0.2-0.1-0.4-0.2
							C343.1,259.7,343.2,259.7,343.3,259.8C343.3,259.8,343.3,259.8,343.3,259.8z"/>
					</g>
					<g>
						<path class="st2" d="M342.9,259.6c0,0,0.1,0,0.1,0C343,259.6,342.9,259.6,342.9,259.6z"/>
					</g>
					<g>
						<path class="st2" d="M342.5,259.5c0.1,0,0.2,0,0.2,0.1C342.6,259.5,342.5,259.5,342.5,259.5z"/>
					</g>
					<g>
						<path class="st2" d="M343.3,259.8c0.1,0,0.2,0.1,0.2,0.1C343.5,259.9,343.4,259.8,343.3,259.8z"/>
					</g>
				</g>
			</g>
			<path class="st0" d="M333.6,263.2c0.8-1.6,2.8-2.1,4.2-0.9c0.6,0.5,1.2,1.2,1.5,2c0.9,2.5,1.8,5.1,2.5,7.7c0.4,1.4-0.2,2.7-1.8,4
				c-2.3,1.9-6.2,0.6-6.8-3c-0.2-1.3-0.4-2.7-0.5-4C332.7,267.1,332.7,265.1,333.6,263.2z"/>
			<path class="st3" d="M336.8,263.8c0.5,1.3,0.9,2.5,1.3,3.8c0.4,1.2,0.9,2.4,1.1,3.7c0.4,2.5-1.4,4.9-3.8,5.1
				c0.5,0.4,1.1,0.6,1.8,0.7c2.9,0.4,5.1-2.3,4.7-5.1c-0.2-1.3-0.7-2.5-1.1-3.7c-0.4-1.3-0.9-2.5-1.3-3.8c-0.3-0.7-0.9-1.4-1.5-2
				c-0.8-0.7-1.7-0.8-2.5-0.6C336,262.5,336.5,263.1,336.8,263.8z"/>
			<g>
				<path class="st4" d="M350.5,270.4c0-0.2,0-0.4,0-0.5C350.5,270,350.5,270.2,350.5,270.4z"/>
				<path class="st4" d="M349.5,272.8c0.1-0.2,0.3-0.4,0.4-0.6C349.8,272.4,349.7,272.6,349.5,272.8z"/>
				<path class="st4" d="M349.4,267.5c-0.1-0.1-0.1-0.2-0.2-0.3C349.2,267.3,349.3,267.4,349.4,267.5z"/>
				<path class="st4" d="M345.9,274.8c0.2,0,0.4,0,0.6,0C346.3,274.8,346.1,274.8,345.9,274.8z"/>
				<path class="st4" d="M348.7,273.8c0.1-0.1,0.3-0.3,0.4-0.4C349,273.5,348.9,273.7,348.7,273.8z"/>
				<path class="st4" d="M341.2,271.1c0.1,0.2,0.2,0.5,0.3,0.8C341.4,271.6,341.3,271.4,341.2,271.1z"/>
				<path class="st4" d="M348.7,266.3c0-0.1-0.1-0.2-0.2-0.2C348.5,266.2,348.6,266.2,348.7,266.3z"/>
				<path class="st4" d="M350.3,271.3c0.1-0.2,0.1-0.4,0.1-0.6C350.4,270.9,350.4,271.1,350.3,271.3z"/>
				<path class="st4" d="M350.3,271.3c-0.1,0.3-0.2,0.6-0.4,0.9C350.1,271.9,350.2,271.6,350.3,271.3z"/>
				<path class="st4" d="M344.8,274.7c-1.3-0.4-2.5-1.3-3.2-2.8l0,0l0,0C342.2,273.4,343.5,274.3,344.8,274.7z"/>
				<path class="st4" d="M341.2,271.1c-0.1-0.2-0.2-0.5-0.3-0.7l0,0C341,270.6,341.1,270.9,341.2,271.1z"/>
				<path class="st4" d="M350.5,269.9c0-0.2-0.1-0.4-0.1-0.5C350.4,269.5,350.4,269.7,350.5,269.9z"/>
				<path class="st4" d="M348.5,266.1c-0.5-0.8-1-1.5-1.5-2.2C347.5,264.6,348,265.3,348.5,266.1z"/>
				<path class="st4" d="M349.2,267.2c-0.2-0.3-0.4-0.6-0.5-0.9C348.8,266.6,349,266.9,349.2,267.2z"/>
				<path class="st4" d="M350,268.6c-0.2-0.4-0.4-0.7-0.6-1.1C349.6,267.8,349.8,268.2,350,268.6c0.1,0.2,0.3,0.5,0.3,0.8
					C350.3,269.1,350.2,268.8,350,268.6z"/>
				<path class="st0" d="M340,267.9c-0.7-2-1.2-4-0.8-6.1c0.4-1.9,2.3-2.9,4.1-2c0.8,0.4,1.6,0.9,2.1,1.6c0.6,0.8,1.1,1.6,1.7,2.5
					c0.5,0.7,1,1.5,1.5,2.2c0,0.1,0.1,0.2,0.2,0.2c0.2,0.3,0.4,0.6,0.5,0.9c0.1,0.1,0.1,0.2,0.2,0.3c0.2,0.4,0.4,0.7,0.6,1.1
					c0.1,0.2,0.3,0.5,0.3,0.8c0,0.2,0.1,0.4,0.1,0.5s0,0.4,0,0.5c0,0.1,0,0.2,0,0.3c0,0.2-0.1,0.4-0.1,0.6c-0.1,0.3-0.2,0.6-0.4,0.9
					c-0.1,0.2-0.2,0.4-0.4,0.6c-0.1,0.1-0.1,0.2-0.2,0.3c-0.1,0.1-0.1,0.2-0.2,0.2c-0.1,0.1-0.3,0.3-0.4,0.4c-0.6,0.6-1.4,0.9-2.3,1
					c-0.2,0-0.4,0-0.6,0c-0.4,0-0.8-0.1-1.1-0.2c-1.3-0.4-2.5-1.3-3.2-2.8l0,0c-0.1-0.2-0.2-0.5-0.3-0.8c-0.1-0.2-0.2-0.5-0.3-0.7
					l0,0C340.5,269.6,340.2,268.8,340,267.9z"/>
				<path class="st3" d="M341.8,260.8c1,1.5,2,3,3,4.5c0.8,1.3,2.6,3.1,2.5,4.8c0,1.2-0.5,2.4-1.5,3.1c-0.5,0.4-1.5,1.1-2.2,0.7
					c0.4,0.3,0.6,0.8,1.1,1c0.4,0.1,0.8,0.1,1.1,0.2c0.2,0,0.4,0,0.6,0c0.8-0.1,1.6-0.4,2.3-1c0.1-0.1,0.3-0.3,0.4-0.4
					c0.1-0.1,0.1-0.1,0.2-0.2c0.1-0.1,0.2-0.2,0.2-0.3c0.1-0.2,0.3-0.4,0.4-0.6c0.2-0.3,0.3-0.6,0.4-0.9c0.1-0.2,0.1-0.4,0.1-0.6
					c0-0.1,0-0.2,0-0.3c0-0.2,0-0.4,0-0.5c0-0.2-0.1-0.4-0.1-0.5c-0.1-0.3-0.2-0.5-0.3-0.8c-0.2-0.4-0.4-0.7-0.6-1.1
					c-0.1-0.1-0.1-0.2-0.2-0.3c-0.2-0.3-0.4-0.6-0.5-0.9c0-0.1-0.1-0.2-0.2-0.2c-0.5-0.8-1-1.5-1.5-2.2c-0.5-0.8-1.1-1.6-1.7-2.5
					c-0.5-0.7-1.3-1.2-2.1-1.6c-0.9-0.4-1.7-0.4-2.5-0.1C341.1,260.1,341.5,260.4,341.8,260.8z"/>
			</g>
			<path class="st0" d="M348.2,256.2c0.8,0.2,1.8,0.6,2.4,1.2c0.7,0.7,1.5,1.4,2.2,2.1c0.6,0.6,1.3,1.2,1.9,1.9
				c0.1,0.1,0.1,0.1,0.2,0.2c0.2,0.2,0.5,0.5,0.7,0.7c0.1,0.1,0.2,0.2,0.2,0.2c0.3,0.3,0.6,0.6,0.9,0.9c0.2,0.2,0.4,0.5,0.5,0.7
				c0.1,0.2,0.2,0.3,0.2,0.5c0.1,0.2,0.1,0.4,0.1,0.5c0,0.1,0,0.2,0,0.3c0,0.2,0,0.4,0,0.6c0,0.3-0.1,0.6-0.2,1
				c-0.1,0.2-0.1,0.5-0.2,0.7c0,0.1-0.1,0.2-0.2,0.4c0,0.1-0.1,0.2-0.1,0.3c-0.1,0.2-0.2,0.3-0.3,0.5c-0.5,0.7-1.2,1.2-2,1.4
				c-0.2,0.1-0.4,0.1-0.5,0.1c-0.4,0.1-0.8,0.1-1.1,0.1c-1.3-0.1-1.7,0-2.6-1.4l-0.4-0.4c-0.2-0.2-0.3-0.7-0.5-0.9
				c-0.1-0.2-0.4-0.8-0.5-1l-0.4-0.7c-0.5-0.7-0.5-0.7-0.9-1.5"/>
			<path class="st3" d="M351.9,261.9c1.2,1.3,2,2.7,1.6,4.4c-0.4,1.4-1.4,2.7-2.7,3.3c0,0,0,0-0.1,0c1.1,0.8,2.5,1,4,0.4
				c1.4-0.6,2.4-1.9,2.7-3.3c0.4-1.8-0.4-3.2-1.6-4.4c-1.3-1.4-2.6-2.7-4-4"/>
			<g>
				<path class="st2" d="M348,265.7l0.5,0.7C348.4,266.4,348.2,266.1,348,265.7z"/>
			</g>
		</g>
		<path class="st0" d="M354.2,246.6c2,1.7,2.9,4.1,2.2,6.5c-0.1,0.4-0.3,0.8-0.5,1.2c-1.5,2.8-3.4,5.4-5.1,8.1
			c-0.1,0.2-0.4,0.4-0.5,0.6c-0.9,0.9-2,1.1-2.9,0.7c-2-0.9-2.4-3-1.9-5c0.6-2.3,2.5-4.2,4-6.1c0.2-0.2,0.4-0.5,0.6-0.8"/>
		<path class="st0" d="M336.4,251.3c3.1,3.5,8.4,3.9,13.7,0.6"/>
		<path class="st5" d="M328,275.5"/>
		<path class="st5" d="M330,263.5c1.1,0.3,2,1.5,2.1,2.7c0.2,2.1,0.4,4.3,0.6,6.4c0,0.4-0.1,0.8-0.3,1.1c-1.3,1.7-3.8,1.5-5.4-0.3
			c-1.5-1.8-1.8-6.9-0.5-8.8C327.3,263.6,328.7,263.2,330,263.5z"/>
		<path class="st3" d="M330.2,265c0.2,2.1,0.4,4.3,0.6,6.4c0,0.4-0.1,0.8-0.3,1.1c-0.9,1.1-2.3,1.4-3.5,0.9c0,0.1,0.1,0.2,0.2,0.2
			c1.5,1.8,4.1,2,5.4,0.3c0.2-0.3,0.3-0.8,0.3-1.1c-0.2-2.1-0.4-4.3-0.6-6.4c-0.1-1.2-1-2.4-2.1-2.7c-0.1,0-0.2,0-0.3,0
			C330,264.1,330.2,264.5,330.2,265z"/>
		<path class="st5" d="M346.9,263.9c0.5,0.7,1,1.5,1.4,2.2c0,0.1,0.1,0.2,0.2,0.3c0.7,1.1,1.6,2.3,1.8,3.6c0.2,2-1.2,4.1-3,4.6
			c-2.1,0.6-4.3-0.9-5.2-2.9c-0.1-0.2-0.2-0.5-0.3-0.8c-0.1-0.2-0.2-0.5-0.3-0.7c-0.3-0.8-0.7-1.6-1-2.5c-0.7-2-1.2-4-0.9-6.1
			c0.3-1.9,2.1-2.8,3.8-1.9c0.6,0.4,1.3,0.8,1.8,1.4"/>
		<path class="st5" d="M352.9,259.6c1,1,1.8,1.8,2.7,2.8c1,1,1.8,2,1.8,3.5c0,2.1-1.5,4.1-3.6,4.5c-0.4,0.1-0.8,0.1-1.1,0.1
			c-0.9,0-2-0.5-2.7-1.1"/>
		<path class="st5" d="M333.5,263.3c0.6-1.1,1.8-1.8,3-1.5c1.7,0.5,2.5,2.2,3,3.7c0.8,2.1,1.5,4.3,2.1,6.5c0.6,2.2-1.4,4.4-3.4,4.8
			c-2.4,0.5-4.6-1.5-5-3.8c-0.2-1.3-0.4-2.6-0.5-4C332.7,267.1,332.6,265.1,333.5,263.3z"/>
		<path class="st5" d="M330,263.5c1.1,0.3,2,1.5,2.1,2.7c0.1,1.6,0.3,3.1,0.4,4.7c0.1,1.5,0.4,3-1.2,3.7c-1.5,0.7-3.3,0-4.3-1.2
			c-1.5-1.8-1.8-6.9-0.5-8.8C327.3,263.6,328.7,263.2,330,263.5z"/>
		<path class="st3" d="M335.2,244.7c0.1,0.2,0.2,0.3,0.3,0.5c0,0.1,0.1,0.1,0.1,0.1l0,0c0.1,0.1,0.1,0.2,0.1,0.2s-0.3-0.1-0.7-0.3
			c-6.8-3-11.7,5.1-11.8,5.1c0.4-1.2,1.8-2.9,0.9-4.7l-3.8-9.8C330.2,238.8,334.1,243.1,335.2,244.7z"/>
		<g>
			<g>
				<g>
					<path class="st3" d="M332.9,223.2l6.6,17.2c-1.4,0.1-2.8,0.7-4.1,1.6c-0.7,0.5-1.6,1.2-2.4,1.2c-3.2-0.4-6.4,0.6-8.8,2.6
						l-6.4-16.8c-0.5-1.3,0.1-2.8,1.5-3.3l10.4-4C330.9,221.2,332.4,221.9,332.9,223.2z"/>
				</g>
			</g>
		</g>
		<path class="st3" d="M336.5,241.7c0.3-0.1,0.5-0.1,0.8-0.2c0.6-0.1,1.1-0.1,1.7-0.1c0.4,0,0.9,0,1.2,0.2c3.1,1.2,6.8,3.5,9.6,5.8
			l0.3,0.3c0.3,0.2,0.5,0.5,0.8,0.8c0.8,0.9,1.4,1.9,1.7,3c0.3,1.1,0.3,2.3,0,3.4c-0.1,0.5-0.3,0.9-0.5,1.3
			c-0.9,1.6-1.9,3.2-2.9,4.8c-0.7,0.9-1.8,0.8-1.9,0.8c-0.9-0.2-1.8-0.9-1.9-2.9l-0.6,3.1l1.9,2.5l1.6,0.4l0.1-0.1
			c0.6,0,1.1-0.3,1.6-0.8l0.1-0.1c0.2-0.2,0.3-0.3,0.4-0.5c0.5-0.8,1.1-1.6,1.6-2.4c1.3-1.9,2.6-3.9,3.7-5.9
			c0.2-0.4,0.3-0.7,0.5-1.1c0.3-1,0.3-2,0-3c-0.2-0.9-0.3-2-1-2.7c-0.1-0.2-0.5-0.5-0.6-0.6l-0.3-0.5c-3.4-2.8-7.1-5.7-10.6-6.5
			c-1.6-0.4-3.1-1-4.4-0.7l-0.4-1c-2.9,0.4-3.8,3.5-3.8,3.5C335.6,242,336.1,241.8,336.5,241.7z"/>
		<path class="st5" d="M336.1,251.4c3.1,3.6,8.6,4,13.9,0.6l0,0.1c-1.3,1.7-2.7,3.4-3.9,5.2c-0.6,0.9-0.9,2-1,3.1
			c-0.2,1.5,0.8,3.1,2.2,3.7c0.9,0.4,2.1,0.1,2.9-0.7c0.6-0.6,1-1.3,1.5-2c0.5-0.8,1-1.5,1.5-2.3c1-1.5,2-3,2.8-4.6
			c0.2-0.4,0.4-0.8,0.5-1.2c0.7-2.4-0.2-4.9-2.3-6.6"/>
		<g>
			<path class="st5" d="M325.8,267.8c-0.9-2.7-3.2-12.2-3.1-15c0.1-2.4,0.8-4.4,2.2-6c-0.1-0.3-7.1-18.5-7.1-18.5
				c-0.5-1.3,0.1-2.7,1.4-3.2l10-3.9c1.3-0.5,2.7,0.1,3.2,1.4c0,0,6.5,17.1,6.6,17.1c1-0.1,2,0,3.1,0.2c4.6,0.9,8.9,3.9,12.2,6.7"/>
		</g>
	</g>
	<path class="st3" d="M256.8,263.1v57c0,1.9-1.1,3.5-2.7,4.3l-23.1,11.1c-3.4,1.7-7.5,1.8-10.9,0c-2-1-3.4-2.5-4.1-4.2
		c-1.8-5,3.1-13.5,13.8-16.4l9.6-2.8c1.1-16.8,2.2-33.5,3.4-50.3"/>
	
		<linearGradient id="SVGID_1_" gradientUnits="userSpaceOnUse" x1="149.8988" y1="142.14" x2="149.8988" y2="67.1037" gradientTransform="matrix(1 0 0 -1 0 404)">
		<stop  offset="0" style="stop-color:#79E54C"/>
		<stop  offset="1" style="stop-color:#00A651"/>
	</linearGradient>
	<path class="st6" d="M170.5,263.1v57c0,1.9-1.1,3.5-2.7,4.3l-23.1,11.1c-3.4,1.7-7.5,1.8-10.9,0c-2-1-3.4-2.5-4.1-4.2
		c-1.8-5,3.1-13.5,13.8-16.4l9.6-2.8c1.1-16.8,2.2-33.5,3.4-50.3"/>
	
		<linearGradient id="SVGID_00000062153363941603973840000003473499811146355882_" gradientUnits="userSpaceOnUse" x1="272.092" y1="196.34" x2="341.0365" y2="196.34" gradientTransform="matrix(1 0 0 -1 0 404)">
		<stop  offset="0" style="stop-color:#79E54C"/>
		<stop  offset="1" style="stop-color:#00A651"/>
	</linearGradient>
	
		<polyline style="fill:none;stroke:url(#SVGID_00000062153363941603973840000003473499811146355882_);stroke-width:17;stroke-miterlimit:10;" points="
		276,174.5 313.4,193.9 333.1,245.4 	"/>
	<g>
		<g>
			<g>
				<g>
					<g>
						<g>
							<g>
								<g>
									<path class="st0" d="M62.8,90.1c0,4.5,5.8,13.9,9.8,15l4.9,20.9c0.3,1.3,1.7,2.2,3,1.9l10.7-2.5c1.3-0.3,2.2-1.7,1.9-3
										l-4.2-18c2.4-0.9,4.2-2.8,5.2-5.5c1.5-3.9,1.8-8.1,1.5-12.2c-0.2-2.7-1.8-5-4.2-5.8c-0.2-0.5-5.6-19.7-5.8-21.4
										c-0.2-1.6-0.2-3.2-1-4.6c-0.6-1.2-1.7-2.6-3.2-2.5c-2.4,0.1-3.2,3-3.3,4.9c0,2.5,0.7,5,1.3,7.4c0.8,2.8,1.8,5.4,2.8,8.1
										c0.2,0.5-0.1,1-0.6,1.1c-0.3,0.1-0.6,0.1-0.6,0.1"/>
									<path class="st0" d="M66.2,81.9"/>
								</g>
							</g>
						</g>
					</g>
				</g>
			</g>
			<path class="st3" d="M71.9,95.3c2.1-1.6,0.7-4.5-0.4-6.3c-0.2-0.3-0.3-0.6-0.5-0.9c-1.1-2-2.3-4-3.5-5.9
				c-0.8-1.2-2.2-1.8-3.7-1.4c-2.9,0.6-4.4,4-2.8,6.6c1.2,1.9,2.7,3.8,4.2,5.5c0.9,1.1,2.2,2.1,3.5,2.7C69.7,96.1,70.9,96,71.9,95.3
				z"/>
			<path class="st3" d="M70.2,86.7c1.1,1.2,3.1,3.3,4.5,4.2c1.2,0.7,2.9,0.3,4-0.6c2.3-1.8,0.8-5-0.4-7c-0.2-0.3-0.4-0.7-0.6-1
				c-1.3-2.2-2.5-4.5-3.9-6.6c-0.9-1.3-2.4-2-4.1-1.6c-3,0.7-4.5,4.1-3.3,6.9"/>
			<path class="st3" d="M95.5,86.6c-0.2-2.8-1.8-5.1-4.3-6l0,0c-0.4-0.2-0.9-0.3-1.3-0.3c-3.4-0.4-6.9-0.4-10.3-0.5
				c-0.3,0-0.6,0.1-0.9,0.1c-1.3,0.2-2.2,1-2.4,2.1c-0.3,1.6,0.4,3.4,1.9,4.1c1,0.5,2.2,1,3.3,1c2.3,0.1,4.6-0.1,6.8-0.2
				c0,0,0.1,0,0.1,0.1"/>
			<path class="st3" d="M80.5,99.4c-1.2-4.9,1.8-9.9,7.9-12.4"/>
			<g>
				<path class="st3" d="M83.4,85.1c2.4-1.5,1.2-4.6,0.3-6.6c-0.1-0.3-0.3-0.7-0.4-1c-0.9-2.2-1.9-4.5-3-6.7
					c-0.7-1.4-2.1-2.1-3.7-1.9c-3.1,0.3-5.3,3.4-3.5,6.4c1.2,2.1,2.6,4.2,4,6.2c0.9,1.2,1.7,2.5,2.9,3.5
					C81,85.7,82.2,85.8,83.4,85.1z"/>
				<path class="st3" d="M80.6,82.4c-1.3-2-2.7-4-3.9-6.1c-0.8-1.3-0.6-2.8,0.4-4.1c0.8-1,1.9-1.5,3.1-1.7c-1.9-2-5.2-1.9-6.9,0.3
					c-1.1,1.3-1.2,2.8-0.4,4.1c1.2,2.1,2.6,4.1,3.9,6.1c0.2,0.3,0.4,0.6,0.6,0.9"/>
			</g>
		</g>
		<path class="st3" d="M83.7,105.2c1,0.1,4.2-0.3,5-0.6l4.2,17.4c0.3,1.3-0.5,2.7-1.9,3l-10.7,2.5c-1.3,0.3-2.7-0.5-3-1.9l-4.5-19.8
			c2.2,0.9,4.2-0.3,6.9-0.9C81.8,104.5,81.6,105.1,83.7,105.2z"/>
		<path class="st8" d="M79.6,92.8"/>
		<path class="st3" d="M69.4,94c-1.5-1.7-3.8-3.8-5-5.8c-1.5-2.4-0.3-5.4,2.1-6.4c-0.8-1.2-1.3-1.4-2.9-1c-2.9,0.6-4.4,4-2.8,6.6
			c1.2,1.9,2.7,3.8,4.2,5.5c0.9,1.1,2.2,2.1,3.5,2.7c0.8,0.4,1.8,0.5,2.6,0.1C70.6,95.1,69.9,94.6,69.4,94z"/>
		<path class="st3" d="M74.5,87.6l-4.1-5.2c-1.1-1.7-1.3-3.9-0.3-5.6c0.5-0.9,1.4-1.7,2.4-2.1c-0.9-1-1.4-1-2.9-0.7
			c-3,0.7-4.5,4.1-3.3,6.9l3.9,5.7c1.1,1.2,3.1,3.3,4.5,4.2c0.9,0.6,2.1,0.4,3.1-0.1C76.6,89.8,75.3,88.5,74.5,87.6z"/>
		<g>
			<path class="st3" d="M79.1,64.7c-0.7-2.4-1.4-4.9-1.3-7.4c0-1.9,0.9-4.8,3.3-4.9c1.4,0,2.7,1.1,3.3,2.2c-2.2,0.3-3.2,3-3.2,4.9
				c0,2.5,0.7,5,1.3,7.4c0.8,2.8,2.9,10.6,3.9,13.2c0.2,0.5-0.5-0.4-1-0.3c-0.3,0.1-0.6,0.1-0.6,0.1l-3-5.9l0.5-0.8"/>
		</g>
		<g>
			<path class="st3" d="M82.5,101.7c0-0.2,0-0.4,0-0.6c0-0.1,0-0.1,0-0.1l0,0c0-0.1,0-0.2,0-0.2s-0.2,0.2-0.3,0.6
				c-3.9,5.5-9.8,3.5-9.3,3.4c0.1,0.9,0.5,1.6,0.6,2.2l2.3,9.8C81.7,108.9,82.5,103.5,82.5,101.7z"/>
			<path class="st3" d="M88.7,104.2c0,0-1.9,1.2-4.9,1c0,0,2.8,2,5.3,0.7L88.7,104.2z"/>
		</g>
		<path class="st3" d="M95.4,85.8c0-0.2-0.5-0.4-0.6-0.6c-0.2-1.1-0.7-2-1.3-2.8c-0.7-0.8-1.5-1.4-2.5-1.8c-0.4-0.2-0.8-0.2-1.2-0.3
			c-2.4-0.3-4.9-0.4-7.3-0.4c-1,0-2-0.1-3-0.1c-0.2,0-0.4,0-0.6,0.1l-0.1,0c-0.7,0.1-1.3,0.5-1.7,0.9l-0.2,0l-0.6,1.6l1,3.1l3,1.3
			c-0.6-0.5-1.2-1.1-1.4-1.8c-0.2-0.5-0.1-1,0.1-1.5c0.2-0.4,0.4-0.9,0.9-1.1c0.2-0.1,0.5-0.1,0.8-0.1c1.7,0.1,3.4,0.1,5.1,0.3
			c1.1,0.2,2.2,0.4,3.3,0.7c0.9,0.3,2.3,0.5,2.9,1.3c0.7,0.9,1.3,2,1.5,3.2c0.4,2,0.3,4.3,0.1,6.4c-0.2,1.9-0.6,3.9-1.2,5.8
			c-0.2,0.7-0.5,1.5-0.8,2.2c0,0,0,0.1-0.1,0.1c1.1-0.9,1.9-2.1,2.5-3.7c1.4-3.5,2-7.8,1.6-12.4L95.4,85.8z"/>
		<g>
			<g>
				<g>
					<g>
						<g>
							<g>
								<g>
									<path class="st5" d="M88.8,104.3l4.2,18c0.3,1.3-0.5,2.7-1.9,3l-10.7,2.5c-1.3,0.3-2.7-0.5-3-1.9l-4.9-20.9"/>
									<path class="st5" d="M72.5,105.1c-1.9-0.8-7.3-4.1-9.8-15"/>
									<path class="st5" d="M88.8,104.3c2.4-0.9,4.2-2.8,5.2-5.5c1.5-3.9,1.8-8.1,1.5-12.2c-0.2-2.7-1.8-5-4.2-5.9
										c-0.2-0.5-6.1-24.6-6.9-26c-0.6-1.2-1.8-2.3-3.3-2.2c-2.8,0.2-3.3,2.6-3.2,4.6c0.1,2.5,0.7,5,1.3,7.4
										c0.8,2.8,1.8,5.4,2.8,8.1c0,0,0.4,1.2-0.8,0.8"/>
									<path class="st5" d="M73.7,75.7"/>
									<path class="st4" d="M66.2,81.9"/>
								</g>
							</g>
						</g>
					</g>
				</g>
			</g>
			<path class="st5" d="M71.9,95.3c2.1-1.6,0.7-4.5-0.4-6.3c-0.2-0.3-0.3-0.6-0.5-0.9c-1.1-2-2.3-4-3.5-5.9
				c-0.8-1.2-2.2-1.8-3.7-1.4c-2.9,0.6-4.4,4-2.8,6.6c1.2,1.9,2.7,3.8,4.2,5.5c0.9,1.1,2.2,2.1,3.5,2.7C69.7,96.1,70.9,96,71.9,95.3
				z"/>
			<path class="st5" d="M76.8,80.9c-1-1.8-2-3.5-3.1-5.2c-0.9-1.3-2.4-2-4.1-1.6c-3,0.7-4.5,4.1-3.3,6.9 M70.2,86.7
				c1.1,1.2,3.1,3.3,4.5,4.2c1.2,0.7,2.9,0.3,4-0.6c1.2-0.9,1.3-2.2,1.1-3.4"/>
			<path class="st5" d="M95.5,86.6c-0.2-2.8-1.8-5.1-4.3-6l0,0c-0.4-0.2-0.9-0.3-1.3-0.3c-3.4-0.4-6.9-0.4-10.3-0.5
				c-0.3,0-0.6,0.1-0.9,0.1c-1.3,0.2-2.2,1-2.4,2.1c-0.3,1.6,0.4,3.4,1.9,4.1c1,0.5,2.2,1,3.3,1c2.3,0.1,4.6-0.1,6.8-0.2
				c0,0,0.1,0,0.1,0.1"/>
			<path class="st5" d="M80.5,99.4c-1.2-4.9,1.8-9.9,7.9-12.4"/>
		</g>
		<path class="st5" d="M84.3,79.9c-0.2-0.6-0.4-0.9-0.6-1.4c-0.1-0.3-0.3-0.7-0.4-1c-0.9-2.2-1.9-4.5-3-6.7
			c-0.7-1.4-2.1-2.1-3.7-1.9c-2.8,0.3-4.9,2.9-3.9,5.6"/>
	</g>
	<path class="st3" d="M105.8,158.6c-5.5-16.1-10.9-32.2-16.4-48.3c-4.9,1-9.7,2.1-14.6,3.1c4.3,20.6,8.6,41.3,12.9,61.9
		c11.7,4.3,23.3,8.6,35,12.9l12.8-19.4C125.6,165.4,115.7,162,105.8,158.6z"/>
	<g>
		<g>
			<g>
				
					<linearGradient id="SVGID_00000000198319966674529270000016347650216292836747_" gradientUnits="userSpaceOnUse" x1="147.52" y1="278.36" x2="241.6" y2="278.36" gradientTransform="matrix(1 0 0 -1 0 404)">
					<stop  offset="0" style="stop-color:#79E54C"/>
					<stop  offset="1" style="stop-color:#00A651"/>
				</linearGradient>
				<path style="fill:url(#SVGID_00000000198319966674529270000016347650216292836747_);" d="M241.6,93.9
					c-14.1-5.9-27.4,15.4-32.2,24.2c0,0,0,0,0,0.1l-1.8,3.4c0,0.1,0,0.1,0,0.1l-6.5,12.6l-15.3,29.7l-38.2-19.7l24.8-48.1
					c2.8-5.3,8.3-8.7,14.3-8.7h44.3C235.4,87.4,239.5,89.9,241.6,93.9z"/>
				<path class="st0" d="M209.4,118.1l-1.8,3.4C207.8,121.2,208.4,119.9,209.4,118.1z"/>
				<path class="st3" d="M267.3,143.6l-25.7-49.8c-14.1-5.9-27.4,15.4-32.2,24.2c0,0,0,0,0,0.1l-1.8,3.4c0,0.1,0,0.1,0,0.1l6.5,12.6
					l15,29.1l-5.9,3.1l34.2,3.5l15.9-29.2L267.3,143.6z"/>
			</g>
		</g>
		<g>
			<g>
				
					<linearGradient id="SVGID_00000114792168988416770180000010130808368002177945_" gradientUnits="userSpaceOnUse" x1="-124.9612" y1="1104.2234" x2="-30.8868" y2="1104.2234" gradientTransform="matrix(-0.5 0.866 0.866 0.5 -722.1188 -269.1317)">
					<stop  offset="0" style="stop-color:#79E54C"/>
					<stop  offset="1" style="stop-color:#00A651"/>
				</linearGradient>
				<path style="fill:url(#SVGID_00000114792168988416770180000010130808368002177945_);" d="M277.1,272.1c12.1-9.2,0.4-31.5-4.8-40
					c0,0,0,0,0-0.1l-2.1-3.3c0-0.1-0.1-0.1-0.1-0.1l-7.7-11.9l-18.1-28.1l36.2-23.2l29.3,45.6c3.2,5.1,3.4,11.5,0.4,16.7l-22.1,38.3
					C285.8,270,281.6,272.3,277.1,272.1z"/>
				<path class="st0" d="M272.2,232.1l-2.1-3.3C270.4,229.1,271.1,230.3,272.2,232.1z"/>
				<path class="st3" d="M221.2,269.5l55.9,2.6c12.1-9.2,0.4-31.5-4.8-40c0,0,0,0,0-0.1l-2.1-3.3c0-0.1-0.1-0.1-0.1-0.1l-14.2-0.7
					l-32.7-1.5l0.3-6.7l-20.1,27.9l17.4,28.4L221.2,269.5z"/>
			</g>
		</g>
		<g>
			<g>
				
					<linearGradient id="SVGID_00000013168909236550584490000007048850881034797483_" gradientUnits="userSpaceOnUse" x1="-703.9368" y1="455.3054" x2="-609.8669" y2="455.3054" gradientTransform="matrix(-0.5 -0.866 -0.866 0.5 221.8539 -557.9424)">
					<stop  offset="0" style="stop-color:#79E54C"/>
					<stop  offset="1" style="stop-color:#00A651"/>
				</linearGradient>
				<path style="fill:url(#SVGID_00000013168909236550584490000007048850881034797483_);" d="M105,213.7c1.9,15.1,27.1,16,37,15.8
					c0,0,0.1,0,0.1,0l3.9-0.2c0.1,0,0.1,0,0.1,0l14.2-0.7l33.4-1.6l2,42.9l-54.1,2.5c-6,0.3-11.7-2.8-14.7-8l-22.1-38.3
					C102.4,222.3,102.6,217.5,105,213.7z"/>
				<path class="st0" d="M142.1,229.5l3.9-0.2C145.6,229.4,144.2,229.5,142.1,229.5z"/>
				<path class="st3" d="M135.2,166.6L105,213.7c1.9,15.1,27.1,16,37,15.8c0,0,0.1,0,0.1,0l3.9-0.2c0.1,0,0.1,0,0.1,0l7.7-11.9
					l17.7-27.5l5.6,3.6l-14.1-31.4l-33.3,0.9L135.2,166.6z"/>
			</g>
		</g>
		<g>
			<g>
				
					<linearGradient id="SVGID_00000085232454628992366930000011274589954153398698_" gradientUnits="userSpaceOnUse" x1="147.52" y1="278.36" x2="241.6" y2="278.36" gradientTransform="matrix(1 0 0 -1 0 404)">
					<stop  offset="0" style="stop-color:#79E54C"/>
					<stop  offset="1" style="stop-color:#00A651"/>
				</linearGradient>
				<path style="fill:url(#SVGID_00000085232454628992366930000011274589954153398698_);" d="M241.6,93.9
					c-14.1-5.9-27.4,15.4-32.2,24.2c0,0,0,0,0,0.1l-1.8,3.4c0,0.1,0,0.1,0,0.1l-6.5,12.6l-15.3,29.7l-38.2-19.7l24.8-48.1
					c2.8-5.3,8.3-8.7,14.3-8.7h44.3C235.4,87.4,239.5,89.9,241.6,93.9z"/>
				<path class="st0" d="M209.4,118.1l-1.8,3.4C207.8,121.2,208.4,119.9,209.4,118.1z"/>
				<path class="st3" d="M267.3,143.6l-25.7-49.8c-14.1-5.9-27.4,15.4-32.2,24.2c0,0,0,0,0,0.1l-1.8,3.4c0,0.1,0,0.1,0,0.1l6.5,12.6
					l15,29.1l-5.9,3.1l34.2,3.5l15.9-29.2L267.3,143.6z"/>
			</g>
		</g>
	</g>
	<g>
		
			<ellipse transform="matrix(9.489875e-02 -0.9955 0.9955 9.489875e-02 46.9906 282.4073)" class="st13" cx="178.8" cy="115.4" rx="28" ry="19.7"/>
		<circle class="st14" cx="176" cy="112.2" r="3.4"/>
	</g>
	<g>
		
			<ellipse transform="matrix(2.539942e-02 -0.9997 0.9997 2.539942e-02 99.8527 333.1367)" class="st15" cx="220.8" cy="115.4" rx="28.8" ry="20.2"/>
		<circle class="st14" cx="215.5" cy="112.4" r="3.5"/>
	</g>
	<path class="st16" d="M219.3,66.8c1.1-0.6,12.1-6.6,23.4-1.2c7,3.4,10.3,9.4,11.3,11.5"/>
	<path class="st16" d="M164.7,72.4c0.8-1,8.5-10.9,21-10.3c7.8,0.3,13.1,4.6,14.9,6.1"/>
</g>
<g class="st17">
	<path class="st18" d="M-546.1,311.9l-12.5,12.5C-558.3,324.1-552.2,316.5-546.1,311.9z"/>
	<path class="st18" d="M-536.1,309.3c-2.6-1.7-6.3-0.1-10,2.6l-12.5,12.5l-27.1,27.1l-18.8-18.8l24.7-24.7c1.5-1.5,3.5-2.4,5.7-2.4
		h31c2.1,0,4.2,0.9,5.7,2.4L-536.1,309.3z"/>
	<path class="st19" d="M-511,329.8v18.8l-23.8,5l2.7-2.7l-26.5-26.5l12.5-12.5c3.7-2.7,7.4-4.3,10-2.6l22.8,22.8L-511,329.8z"/>
</g>
<g class="st17">
	<g class="st20">
		
			<linearGradient id="SVGID_00000013186472567313483780000011040735280417299114_" gradientUnits="userSpaceOnUse" x1="431.7701" y1="166.29" x2="431.7701" y2="245.5" gradientTransform="matrix(1 0 0 -1 0 404)">
			<stop  offset="0" style="stop-color:#79E54C"/>
			<stop  offset="1" style="stop-color:#00A651"/>
		</linearGradient>
		<path style="fill:url(#SVGID_00000013186472567313483780000011040735280417299114_);" d="M430.6,237.7c-6.4,0-12.5-0.7-18.4-2.2
			c-5.9-1.4-10.8-3.3-14.6-5.6l8.2-18.6c3.6,2.1,7.6,3.8,12.1,5s8.8,1.9,12.9,1.9c2.5,0,4.4-0.2,5.8-0.5c1.4-0.3,2.4-0.8,3.1-1.4
			c0.6-0.6,1-1.4,1-2.2c0-1.4-0.8-2.4-2.3-3.2c-1.5-0.8-3.5-1.5-6-2s-5.2-1.1-8.2-1.7c-3-0.6-5.9-1.4-8.9-2.4c-3-1-5.7-2.3-8.2-4
			s-4.5-3.8-6-6.6c-1.5-2.7-2.3-6.1-2.3-10.1c0-4.7,1.3-9,4-12.8s6.6-6.9,11.8-9.2s11.7-3.5,19.5-3.5c5.1,0,10.2,0.5,15.1,1.6
			c5,1.1,9.5,2.7,13.4,5l-7.7,18.5c-3.8-1.9-7.4-3.3-10.9-4.2c-3.5-0.9-6.9-1.4-10.2-1.4c-2.5,0-4.4,0.2-5.8,0.6s-2.5,1-3.1,1.7
			s-0.9,1.5-0.9,2.4c0,1.3,0.8,2.3,2.3,3.1c1.5,0.8,3.5,1.4,6,1.9c2.5,0.5,5.2,1.1,8.2,1.6c3,0.6,6,1.4,8.9,2.4c3,1,5.7,2.3,8.2,4
			c2.5,1.7,4.5,3.8,6,6.5c1.5,2.7,2.3,6,2.3,10c0,4.6-1.3,8.9-4,12.7c-2.6,3.9-6.5,7-11.7,9.3C445,236.5,438.5,237.7,430.6,237.7z"
			/>
		
			<linearGradient id="SVGID_00000023984064809285565370000006462801629791326094_" gradientUnits="userSpaceOnUse" x1="486.26" y1="166.2897" x2="486.26" y2="245.5007" gradientTransform="matrix(1 0 0 -1 0 404)">
			<stop  offset="0" style="stop-color:#79E54C"/>
			<stop  offset="1" style="stop-color:#00A651"/>
		</linearGradient>
		<path style="fill:url(#SVGID_00000023984064809285565370000006462801629791326094_);" d="M473.5,236v-75.8H499V236H473.5z"/>
		
			<linearGradient id="SVGID_00000023258098696817148570000002549675887547978368_" gradientUnits="userSpaceOnUse" x1="551.395" y1="166.2897" x2="551.395" y2="245.5007" gradientTransform="matrix(1 0 0 -1 0 404)">
			<stop  offset="0" style="stop-color:#79E54C"/>
			<stop  offset="1" style="stop-color:#00A651"/>
		</linearGradient>
		<path style="fill:url(#SVGID_00000023258098696817148570000002549675887547978368_);" d="M511.4,236v-75.8h37.3
			c8.4,0,15.9,1.5,22.3,4.6s11.4,7.4,15,13c3.6,5.6,5.4,12.3,5.4,20.1c0,7.9-1.8,14.6-5.4,20.3s-8.6,10-15,13.1
			c-6.4,3.1-13.8,4.6-22.3,4.6L511.4,236L511.4,236z M536.9,216.1h10.7c3.6,0,6.8-0.7,9.5-2.1c2.7-1.4,4.8-3.4,6.3-6.1
			c1.5-2.7,2.3-6,2.3-9.9c0-3.8-0.8-7.1-2.3-9.7s-3.6-4.7-6.3-6.1s-5.9-2.1-9.5-2.1h-10.7V216.1z"/>
		
			<linearGradient id="SVGID_00000044886559868257051370000004975630422435577474_" gradientUnits="userSpaceOnUse" x1="638.185" y1="166.2897" x2="638.185" y2="245.5007" gradientTransform="matrix(1 0 0 -1 0 404)">
			<stop  offset="0" style="stop-color:#79E54C"/>
			<stop  offset="1" style="stop-color:#00A651"/>
		</linearGradient>
		<path style="fill:url(#SVGID_00000044886559868257051370000004975630422435577474_);" d="M592.5,236l33.1-75.8h25.1l33.1,75.8
			h-26.4L633,172.3h10L618.5,236H592.5z M612.2,222.8l6.5-18.4h34.8l6.5,18.4H612.2z"/>
		
			<linearGradient id="SVGID_00000030459923166531851980000017425375980153756564_" gradientUnits="userSpaceOnUse" x1="717.825" y1="166.2897" x2="717.825" y2="245.5007" gradientTransform="matrix(1 0 0 -1 0 404)">
			<stop  offset="0" style="stop-color:#79E54C"/>
			<stop  offset="1" style="stop-color:#00A651"/>
		</linearGradient>
		<path style="fill:url(#SVGID_00000030459923166531851980000017425375980153756564_);" d="M688,236v-75.8h25.5v55.9h34.2V236H688z"
			/>
		
			<linearGradient id="SVGID_00000023977814298925872800000017678333157240831393_" gradientUnits="userSpaceOnUse" x1="792.175" y1="166.2897" x2="792.175" y2="245.5007" gradientTransform="matrix(1 0 0 -1 0 404)">
			<stop  offset="0" style="stop-color:#79E54C"/>
			<stop  offset="1" style="stop-color:#00A651"/>
		</linearGradient>
		<path style="fill:url(#SVGID_00000023977814298925872800000017678333157240831393_);" d="M746.5,236l33.1-75.8h25.1l33.1,75.8
			h-26.4L787,172.3h10L772.5,236H746.5z M766.2,222.8l6.5-18.4h34.8l6.5,18.4H766.2z"/>
		
			<linearGradient id="SVGID_00000054238841820876997990000003761907142503318709_" gradientUnits="userSpaceOnUse" x1="879.28" y1="166.2897" x2="879.28" y2="245.5007" gradientTransform="matrix(1 0 0 -1 0 404)">
			<stop  offset="0" style="stop-color:#79E54C"/>
			<stop  offset="1" style="stop-color:#00A651"/>
		</linearGradient>
		<path style="fill:url(#SVGID_00000054238841820876997990000003761907142503318709_);" d="M842,236v-75.8h21l38.5,46.1h-9.7v-46.1
			h24.9V236h-21l-38.5-46.1h9.7V236L842,236L842,236z"/>
		
			<linearGradient id="SVGID_00000005224884104516759430000007480157971717524919_" gradientUnits="userSpaceOnUse" x1="964.645" y1="166.29" x2="964.645" y2="245.51" gradientTransform="matrix(1 0 0 -1 0 404)">
			<stop  offset="0" style="stop-color:#79E54C"/>
			<stop  offset="1" style="stop-color:#00A651"/>
		</linearGradient>
		<path style="fill:url(#SVGID_00000005224884104516759430000007480157971717524919_);" d="M968.2,237.7c-6.1,0-11.8-1-16.9-2.9
			c-5.2-1.9-9.6-4.6-13.4-8.2c-3.8-3.5-6.7-7.7-8.8-12.6s-3.1-10.2-3.1-16s1-11.2,3.1-16c2.1-4.8,5-9,8.9-12.6s8.3-6.3,13.6-8.2
			c5.2-1.9,11-2.9,17.3-2.9c7.5,0,14.2,1.3,20.1,3.8s10.7,6.1,14.5,10.8L987,187.5c-2.4-2.7-5-4.8-7.7-6.2c-2.8-1.4-5.9-2.1-9.2-2.1
			c-2.8,0-5.4,0.4-7.6,1.3s-4.2,2.1-5.8,3.8c-1.6,1.7-2.8,3.6-3.7,5.9s-1.3,4.9-1.3,7.9c0,2.8,0.4,5.4,1.3,7.7
			c0.9,2.3,2.1,4.4,3.7,6c1.6,1.7,3.5,2.9,5.7,3.8s4.7,1.4,7.4,1.4c2.9,0,5.7-0.5,8.4-1.5s5.7-2.6,8.8-5l14.3,17.5
			c-4.6,3.1-9.9,5.5-15.8,7.1C979.5,236.9,973.8,237.7,968.2,237.7z M979,224.8v-28.8h22.2v32L979,224.8z"/>
	</g>
</g>
<linearGradient id="SVGID_00000017510169042263594910000000805438458856730251_" gradientUnits="userSpaceOnUse" x1="479.3531" y1="271.795" x2="502.5534" y2="271.795" gradientTransform="matrix(1 0 0 -1 0 404)">
	<stop  offset="0" style="stop-color:#79E54C"/>
	<stop  offset="1" style="stop-color:#00A651"/>
</linearGradient>
<path style="display:none;fill:url(#SVGID_00000017510169042263594910000000805438458856730251_);" d="M501.1,116.3
	c0,0-13.2,1.6-18.8,10.4c-4.2,6.6-3,15.3-2.1,19.3l11.2-20.2c0,1.4-0.1,2.9-0.4,4.4c-1.3,8-5.8,13.9-9.8,17.9
	c2.4-0.4,13.3-2.6,18.3-10.4C505.2,128.9,501.1,116.3,501.1,116.3z"/>
</svg>
